<?xml version="1.0" standalone="no"?>
<!DOCTYPE svg PUBLIC "-//W3C//DTD SVG 20010904//EN"
 "http://www.w3.org/TR/2001/REC-SVG-20010904/DTD/svg10.dtd">
<svg version="1.0" xmlns="http://www.w3.org/2000/svg"
 width="512.000000pt" height="512.000000pt" viewBox="0 0 512.000000 512.000000"
 preserveAspectRatio="xMidYMid meet">

<g transform="translate(0.000000,512.000000) scale(0.100000,-0.100000)"
fill="#000000" stroke="none">
<path d="M245 5111 c-90 -22 -172 -90 -215 -176 l-25 -50 0 -2325 0 -2325 23
-45 c35 -72 75 -114 144 -151 l63 -34 645 0 645 0 63 34 c70 38 101 70 140
145 22 43 26 64 26 136 1 78 -2 90 -33 148 -37 69 -79 109 -151 144 -44 23
-51 23 -487 26 l-443 3 0 1919 0 1919 443 3 442 3 63 34 c70 38 101 70 140
145 22 43 26 64 26 136 1 78 -2 90 -33 148 -37 69 -79 109 -151 144 l-45 23
-625 2 c-344 1 -638 -2 -655 -6z"/>
<path d="M2510 4017 c-26 -7 -62 -23 -80 -34 -19 -12 -312 -300 -651 -640
-585 -586 -618 -621 -635 -673 -23 -70 -23 -150 0 -220 17 -52 50 -87 640
-678 697 -699 671 -677 806 -677 59 1 87 6 132 27 153 71 226 246 168 403 -21
56 -44 82 -348 387 l-326 328 1335 2 1334 3 51 27 c76 40 107 70 145 140 31
58 34 70 34 148 0 78 -3 90 -34 148 -37 69 -79 109 -151 144 l-45 23 -1334 3
-1335 2 326 328 c304 305 327 331 348 387 57 155 -16 333 -164 401 -65 29
-155 38 -216 21z"/>
</g>
</svg>
