<?xml version="1.0" standalone="no"?>
<!DOCTYPE svg PUBLIC "-//W3C//DTD SVG 20010904//EN"
 "http://www.w3.org/TR/2001/REC-SVG-20010904/DTD/svg10.dtd">
<svg version="1.0" xmlns="http://www.w3.org/2000/svg"
 width="512.000000pt" height="512.000000pt" viewBox="0 0 512.000000 512.000000"
 preserveAspectRatio="xMidYMid meet">

<g transform="translate(0.000000,512.000000) scale(0.100000,-0.100000)"
fill="#000000" stroke="none">
<path d="M1235 3953 c-311 -47 -565 -276 -634 -575 -12 -50 -30 -216 -47 -418
l-26 -335 -110 -430 c-60 -236 -114 -465 -119 -507 -39 -285 129 -591 397
-726 106 -54 171 -67 324 -67 133 0 152 3 225 28 102 36 209 103 282 176 32
32 200 257 373 500 l315 441 332 0 332 0 322 -450 c348 -487 398 -545 526
-613 114 -59 185 -78 313 -84 148 -6 234 11 359 73 78 39 110 62 181 133 97
95 148 177 188 299 22 66 25 95 25 207 l1 130 -102 394 c-55 217 -99 398 -96
403 9 14 -55 749 -72 828 -59 279 -267 495 -555 577 -55 15 -103 18 -349 18
l-285 0 -56 -26 c-95 -45 -168 -133 -187 -226 l-8 -38 -524 0 -524 0 -8 38
c-19 93 -84 174 -176 219 l-66 33 -261 1 c-143 1 -273 0 -290 -3z m529 -254
c14 -11 26 -25 26 -30 0 -5 -77 -9 -182 -9 -139 0 -205 -5 -273 -19 -158 -32
-301 -104 -427 -213 -32 -27 -58 -46 -58 -43 0 4 15 35 33 68 39 75 124 162
198 202 104 56 150 64 415 64 230 1 243 0 268 -20z m2150 5 c87 -22 170 -69
235 -134 54 -54 113 -149 132 -212 8 -28 2 -25 -64 39 -112 109 -239 182 -394
229 -79 24 -108 27 -290 32 -112 2 -203 8 -203 12 0 5 12 18 26 29 25 20 39
21 261 21 182 0 249 -4 297 -16z m-2236 -269 c46 -9 115 -34 172 -62 79 -39
109 -61 181 -132 71 -72 93 -102 132 -181 175 -358 37 -765 -321 -944 -86 -43
-192 -66 -306 -66 -207 0 -372 72 -511 222 -123 133 -175 258 -183 440 -5 136
11 227 59 328 142 300 454 459 777 395z m1266 -10 c-79 -62 -191 -229 -243
-361 -34 -88 -52 -202 -52 -324 0 -164 34 -289 129 -472 2 -5 -100 -8 -227 -8
-127 0 -231 2 -231 4 0 2 21 47 46 100 158 333 94 734 -160 1003 l-78 83 423
0 424 0 -31 -25z m800 0 c304 -82 516 -361 516 -680 0 -293 -180 -550 -462
-658 -80 -31 -88 -32 -238 -31 -145 0 -160 1 -228 27 -114 44 -190 93 -273
177 -130 131 -198 300 -199 491 0 327 237 617 559 685 81 17 243 12 325 -11z
m-2942 -1221 c45 -61 157 -170 220 -213 73 -49 204 -108 293 -132 110 -30 324
-31 438 -2 42 11 77 18 77 16 0 -2 -94 -136 -209 -297 -225 -314 -281 -376
-384 -425 -148 -69 -293 -68 -446 4 -128 61 -239 198 -270 335 -25 109 -16
177 74 535 47 187 88 347 91 355 3 9 19 -12 42 -56 21 -38 54 -92 74 -120z
m3691 -164 c47 -184 88 -357 92 -385 17 -135 -44 -296 -152 -404 -160 -159
-383 -195 -588 -95 -97 48 -147 104 -370 417 -119 165 -214 301 -213 303 2 1
39 -6 83 -17 262 -63 529 -11 751 147 90 63 204 191 259 289 26 47 49 84 50
83 2 -2 41 -154 88 -338z"/>
<path d="M1483 3184 c-54 -27 -75 -73 -81 -175 l-5 -89 -87 0 c-74 0 -92 -3
-121 -23 -95 -63 -86 -203 15 -251 22 -11 61 -16 114 -16 l80 0 4 -87 c7 -142
53 -198 156 -190 93 7 132 65 132 197 l0 80 83 0 c96 0 140 17 175 70 20 29
23 44 20 88 -4 45 -10 59 -42 90 l-36 37 -100 3 -100 4 0 81 c0 91 -17 137
-61 170 -37 27 -106 32 -146 11z"/>
<path d="M3520 3189 c-33 -13 -68 -47 -86 -81 -22 -42 -18 -119 9 -159 24 -37
97 -79 137 -79 40 0 113 42 137 79 46 69 24 170 -49 224 -31 23 -111 32 -148
16z"/>
<path d="M3262 2927 c-72 -23 -123 -120 -102 -196 27 -103 166 -155 249 -94
50 38 66 70 66 136 0 75 -27 120 -89 148 -45 21 -75 22 -124 6z"/>
<path d="M3799 2930 c-78 -23 -124 -92 -116 -173 11 -116 125 -179 231 -128
102 50 123 174 43 259 -43 44 -100 60 -158 42z"/>
<path d="M3489 2646 c-50 -34 -72 -85 -67 -151 8 -93 78 -151 172 -143 93 8
146 68 146 163 0 92 -65 155 -161 155 -41 0 -63 -6 -90 -24z"/>
</g>
</svg>
